<svg xmlns="http://www.w3.org/2000/svg" xmlns:xlink="http://www.w3.org/1999/xlink" width="69" height="76" viewBox="0 0 69 76">
    <defs>
        <linearGradient id="a" x1="7.874%" x2="99.157%" y1="80.835%" y2="34.063%">
            <stop offset="0%" stop-color="#00ACED" stop-opacity=".4"/>
            <stop offset="1%" stop-color="#00ABED" stop-opacity=".36"/>
            <stop offset="5%" stop-color="#00A8ED" stop-opacity=".25"/>
            <stop offset="9%" stop-color="#00A6EC" stop-opacity=".16"/>
            <stop offset="14%" stop-color="#00A4EC" stop-opacity=".09"/>
            <stop offset="20%" stop-color="#00A3EC" stop-opacity=".04"/>
            <stop offset="29%" stop-color="#00A2EC" stop-opacity=".01"/>
            <stop offset="53%" stop-color="#00A2EC" stop-opacity="0"/>
            <stop offset="58%" stop-color="#00A0EC" stop-opacity=".02"/>
            <stop offset="64%" stop-color="#009BEC" stop-opacity=".09"/>
            <stop offset="71%" stop-color="#0093EB" stop-opacity=".2"/>
            <stop offset="78%" stop-color="#0087EB" stop-opacity=".35"/>
            <stop offset="86%" stop-color="#0078EA" stop-opacity=".55"/>
            <stop offset="94%" stop-color="#0066E9" stop-opacity=".78"/>
            <stop offset="100%" stop-color="#0055E8"/>
        </linearGradient>
        <path id="b" d="M309.3 478.07c-47.83-14.79-289.12 23.69-290.27-59C17.94 340.65-9.99 148.47 49 68.25 89 13.83 227.76 64.35 276 16c27-27 151.26-9.33 190.07-10 29.26-.5 54.11 39.85 72.93 62.25 19 22.66-3.23 50.88 13.77 74.75 12.58 17.62 38.11 19.66 57.24 29 32.72 16 69.62 58.08 61.99 104-4.87 29.32-48.82 98.35-61.99 125-16.09 32.54 19.43 65.49 26.99 98.13 7.15 30.86-57.08-16.35-84.23 0C463.49 553 390 503 309.3 478.07z"/>
    </defs>
    <g fill="none" fill-rule="evenodd">
        <g transform="translate(37 55)">
            <path fill="url(#a)" d="M308.47 490.21c-50.76-15.69-306.76 25.13-308-62.59-1.16-83.2 105.59-90.5 168.18-175.61 42.46-57.74 63.88-130.42 115.07-181.72C312.35 41.62 350.78 20.68 392 20c31.05-.53 62.88 11.65 82.85 35.43 20.19 24 26.48 56.12 44.57 81.45 13.35 18.7 33.18 30.89 53.48 40.8 34.72 16.94 79.77 32.29 71.67 81-5.16 31.11-33.33 52.75-47.31 81-17.07 34.53-5.47 65.61 2.55 100.24 7.58 32.74-4.16 55.31-33 72.66-94.75 57.08-172.69 4.11-258.34-22.37z"/>
            <mask id="c" fill="#fff">
                <use xlink:href="#b"/>
            </mask>
            <g mask="url(#c)">
                <path d="M-37-21h720v600H-37z"/>
            </g>
        </g>
        <path fill="#4690CD" d="M52.212 8C46.3 8 39.264 11.006 32 18.535c.408.943.79 1.878 1.147 2.804 4.365-5.399 10.868-8.668 17.842-8.968 15.65.227 15.293 23.444-2.32 23.317a18.85 18.85 0 0 1-13.1-6.24c.594 3.083.918 6.21.968 9.348A18.641 18.641 0 0 0 49.281 44c24.8-.025 26.687-36.05 2.931-36z"/>
        <path fill="#99C93D" d="M31.587 19L28 22.049 29.766 24 33 21.561z"/>
        <path fill="#4690CD" d="M30.863 24.368A61.652 61.652 0 0 1 28.094 20L26 21.374A51.785 51.785 0 0 0 30.814 32c.23-2.538.247-5.091.049-7.632z"/>
        <path fill="#FFC613" fill-rule="nonzero" d="M29.008 14.963c-.585.68-1.204 1.33-1.856 1.947-3.915-9.488-9.509-12.834-14.517-12.909C-3.46 3.801-2.824 26.15 14.338 26c6.014-.097 11.705-2.691 15.662-7.141l-.992-3.895zM17.491 21.43C5.999 21.43 4.55 8.046 13.118 7.822c4.22 0 9.534 3.87 12 10.612a12.069 12.069 0 0 1-7.627 2.996z"/>
        <path fill="#99C93D" fill-rule="nonzero" d="M31.963 19.516a2.814 2.814 0 0 0-.328-.481l-.681-1.571a16.923 16.923 0 0 0 3.935-10.34c0-9.503-10.09-9.452-10.09-.126 0 6.943 5.297 10.136 5.978 17.739v6.462C29.667 46.404 22.1 66.323 12.49 62.623c-5.045-1.9-8.374-11.759 15.135-36.366a52.792 52.792 0 0 1-1.16-2.889C6.284 41.108.129 54.412.003 63.13-.375 85.76 36.25 78.994 35.999 39.283a52.845 52.845 0 0 0-4.036-19.767zm-2.85-5.347a13.697 13.697 0 0 1-2.523-6.69c0-5.347 5.55-5.5 5.524-.304a14.275 14.275 0 0 1-3.002 6.994z"/>
        <path fill="#414042" d="M36.155 29.317l-.39-.317a49.684 49.684 0 0 1 1.14 9.736l.33.264a49.732 49.732 0 0 0-1.08-9.683zM32.544 18.75l-.15-.278v-.166l-.27-.306a.971.971 0 0 1-.27 0v.194c.082.143.153.292.21.445 0 .25.21.5.3.722a.36.36 0 0 1 0 .167c.21.444.39.86.54 1.278V21l.24-.25c.03-.556-.27-1.278-.6-2zM28.22 25.877c-.42-.762-.81-1.574-1.2-2.459v-.172a.607.607 0 0 1 0-.246l-.24.197c.42.959.9 1.893 1.38 2.803a.667.667 0 0 1 .06-.123zM26.225 22.715a25.92 25.92 0 0 0 2.64-2.16l-.18-.27a24.3 24.3 0 0 1-2.55 2.1l.09.33zM31.7 16.741A33.824 33.824 0 0 0 29.51 13l-.21.259A36.756 36.756 0 0 1 31.49 17l.21-.259z" opacity=".3" style="mix-blend-mode:multiply"/>
    </g>
</svg>
